<svg width="109" height="33" viewBox="0 0 109 33" fill="none" xmlns="http://www.w3.org/2000/svg">
<path d="M94.8583 19.5904V30.757C94.8583 31.5904 95.5341 32.257 96.3787 32.257H100.264C101.109 32.257 101.362 31.507 101.362 30.6737V19.3404C101.447 15.8404 103.896 13.0904 106.768 12.4237C107.444 12.257 108.035 11.6737 108.035 10.9237V7.4237C108.035 6.50703 107.191 5.84037 106.346 5.9237C99.842 6.84037 94.9428 12.5904 94.8583 19.5904ZM53.8065 22.257L60.4796 7.50703C60.733 6.9237 61.2398 6.59037 61.8311 6.59037H65.6322C66.7303 6.59037 67.4905 7.75703 66.9837 8.75703L56.594 31.3404C56.3406 31.8404 55.8338 32.257 55.2425 32.257H52.3706C51.7793 32.257 51.2725 31.9237 51.0191 31.3404L40.545 8.75703C40.1226 7.75703 40.7984 6.59037 41.8965 6.59037H45.6976C46.2888 6.59037 46.7957 6.9237 47.0491 7.50703L53.8065 22.257ZM33.5341 16.1737C33.0273 13.6737 30.8311 11.507 27.7057 11.507C24.7493 11.507 22.3842 13.507 21.7929 16.1737H33.5341ZM39.1935 21.3404H21.7929C23.06 24.6737 25.8474 26.1737 28.466 26.1737C30.6621 26.1737 32.6049 25.1737 34.1253 24.0904C34.8011 23.6737 35.3924 23.757 35.9837 24.4237L38.1798 27.0904C38.6867 27.8404 38.6022 28.507 38.0109 29.007C34.8011 31.5904 31.3379 32.507 28.466 32.507C20.9482 32.507 15.2888 26.3404 15.2888 18.9237C15.2888 11.5904 20.8638 5.84037 27.9591 5.84037C34.8856 5.84037 40.0381 11.257 40.545 19.9237C40.545 20.8404 40.0381 21.3404 39.1935 21.3404ZM85.3978 16.1737C84.891 13.6737 82.6948 11.507 79.5695 11.507C76.6131 11.507 74.248 13.507 73.6567 16.1737H85.3978ZM91.0572 21.3404H73.5722C74.8392 24.6737 77.6267 26.1737 80.2452 26.1737C82.4414 26.1737 84.3842 25.1737 85.9046 24.0904C86.5804 23.6737 87.1717 23.757 87.7629 24.4237L89.9591 27.0904C90.4659 27.8404 90.3815 28.507 89.7902 29.007C86.5804 31.5904 83.1172 32.507 80.2452 32.507C72.7275 32.507 67.0681 26.3404 67.0681 18.9237C67.0681 11.5904 72.643 5.84037 79.7384 5.84037C86.6648 5.84037 91.8175 11.257 92.3243 19.9237C92.3243 20.8404 91.9019 21.3404 91.0572 21.3404ZM7.0109 15.8404V14.8404C7.0109 10.9237 9.37603 7.6737 12.5858 7.00703C13.2616 6.84037 13.7684 6.25703 13.7684 5.59037V1.50703C13.7684 0.590366 12.9237 -0.0763007 12.079 0.00703265C5.32153 0.923699 0.0844687 7.1737 0 14.757V30.757C0 31.5904 0.675752 32.257 1.52044 32.257H5.49046C6.33515 32.257 7.0109 31.5904 7.0109 30.757V21.5904H11.2343C12.079 21.5904 12.7548 20.9237 12.7548 20.0904V17.3404C12.7548 16.507 12.079 15.8404 11.2343 15.8404H7.0109Z" fill="white" fill-opacity="0.8"/>
</svg>
