<svg width="33" height="33" viewBox="0 0 33 33" fill="none" xmlns="http://www.w3.org/2000/svg">
<path d="M24.0625 8.9375H24.0763M9.625 2.75H23.375C27.172 2.75 30.25 5.82804 30.25 9.625V23.375C30.25 27.172 27.172 30.25 23.375 30.25H9.625C5.82804 30.25 2.75 27.172 2.75 23.375V9.625C2.75 5.82804 5.82804 2.75 9.625 2.75ZM22 15.6337C22.1697 16.7781 21.9742 17.9468 21.4414 18.9736C20.9086 20.0005 20.0656 20.8332 19.0322 21.3533C17.9989 21.8734 16.8279 22.0544 15.6857 21.8707C14.5435 21.6869 13.4884 21.1476 12.6704 20.3296C11.8524 19.5116 11.3131 18.4565 11.1293 17.3143C10.9456 16.1721 11.1266 15.0011 11.6467 13.9678C12.1668 12.9344 12.9995 12.0914 14.0264 11.5586C15.0532 11.0258 16.2219 10.8303 17.3663 11C18.5335 11.1731 19.6142 11.717 20.4486 12.5514C21.283 13.3858 21.8269 14.4665 22 15.6337Z" stroke="white" stroke-opacity="0.8" stroke-width="2" stroke-linecap="round" stroke-linejoin="round"/>
</svg>
