<svg width="129" height="35" viewBox="0 0 129 35" fill="none" xmlns="http://www.w3.org/2000/svg">
<path d="M85.4823 0H80.0763V29.9167C84.9755 30.0833 89.8747 30.3333 94.7738 30.6667V25.4167C91.6485 25.25 88.6076 25 85.4823 24.9167V0ZM128.561 0H122.649L118.763 9L115.215 0H109.387L115.722 16L108.711 31.75C110.654 31.9167 112.512 32.1667 114.371 32.3333L118.341 23.1667L122.311 33.25C124.338 33.5 126.45 33.75 128.477 34.0833L121.466 16.0833L128.561 0ZM61.4932 29.6667H66.8992V17.5H74.248V12.25H66.8992V5.33333H76.6131V0H61.4932V29.6667ZM41.3052 5.33333H46.9646V30C48.7384 29.9167 50.5967 29.9167 52.3706 29.8333V5.33333H58.03V0H41.3052V5.33333ZM22.8065 31.5C27.7902 31.0833 32.7738 30.6667 37.842 30.4167V25.1667C34.6322 25.3333 31.4223 25.5833 28.2125 25.8333V17.8333C30.3243 17.8333 33.1117 17.75 35.5613 17.75V12.5C33.6185 12.5 30.4932 12.5 28.2125 12.5833V5.33333H37.842V0H22.8065V31.5ZM12.1635 19.3333L5.15259 0H0V34.0833C1.77384 33.8333 3.63215 33.5833 5.40599 33.3333V14.8333L11.6567 32.5833C13.5995 32.3333 15.6267 32.1667 17.5695 31.9167V0H12.1635V19.3333ZM99.2507 31C101.025 31.1667 102.883 31.25 104.657 31.4167V0H99.2507V31Z" fill="white" fill-opacity="0.8"/>
</svg>
