<svg width="154" height="68" viewBox="0 0 154 68" fill="none" xmlns="http://www.w3.org/2000/svg">
<g clip-path="url(#clip0_1_106)">
<path d="M28.4683 12.8643C28.5452 15.0515 30.1695 16.4528 32.9183 16.4528H33.1586C35.2875 16.4528 36.5225 15.3298 36.5225 13.9384C36.5225 12.6641 35.8257 11.9171 34.0813 11.551L30.9192 10.8968C27.7859 10.2279 26.2001 8.4068 26.2001 5.52628C26.2001 2.64575 28.9056 -0.0541375 33.0625 -0.000432726C37.3202 -0.0394907 39.9777 2.48952 39.9921 6.05844H36.8156C36.6907 4.05184 35.1769 2.87033 33.1153 2.87033H32.8558C30.7654 2.87033 29.3958 4.01278 29.3958 5.42863C29.3958 6.74196 30.1599 7.44988 31.7698 7.77699L34.6243 8.3531C37.9161 9.02197 39.723 10.7649 39.723 13.7236C39.7615 16.9849 36.9983 19.3479 32.7117 19.3089C27.9926 19.3089 25.436 16.8677 25.3062 12.8448L28.4683 12.8643ZM42.4142 0.263209H56.1966V3.14862H45.5907V7.97228H54.6107V10.8577H45.5907V16.194H56.4561V19.0648H42.4142V0.263209ZM66.0192 -0.000432726C70.4067 -0.0394907 73.4246 2.68969 73.6313 6.34649H70.4548C70.3242 5.35164 69.8218 4.44601 69.0516 3.81749C68.2251 3.17805 67.2064 2.8486 66.1682 2.88498H65.8991C62.5688 2.83616 60.363 5.67763 60.4015 9.67619C60.363 13.6748 62.5688 16.5113 65.8991 16.4674H66.1682C67.2023 16.507 68.219 16.1886 69.0516 15.5642C69.8253 14.9338 70.3255 14.0208 70.4452 13.0205H73.6217C73.4006 16.731 70.4067 19.3675 66.0096 19.3675C60.5601 19.4163 57.1673 15.3542 57.2202 9.7006C57.1865 4.03719 60.5505 -0.063902 66.0192 -0.000432726ZM75.9908 0.263209H84.2997C87.5291 0.224151 90.0664 2.47975 90.0328 5.37493C90.0328 7.7477 88.9083 9.42719 86.9332 10.1205C88.9467 10.1205 89.7733 10.9749 89.7733 12.7715V19.0648H86.5968V13.582C86.5968 12.1661 86.2267 11.7756 84.8331 11.7756H79.1673V19.0648H75.9908V0.263209ZM83.526 8.9292C85.6549 8.9292 86.8899 7.77699 86.8899 5.94127C86.8899 4.10554 85.727 3.14862 83.526 3.14862H79.1673V8.9292H83.526ZM92.9834 0.263209H106.766V3.14862H96.1551V7.97228H105.175V10.8577H96.1551V16.194H107.021V19.0648H92.9834V0.263209ZM114.291 3.14862H107.799V0.263209H123.955V3.14862H117.453V19.0648H114.291V3.14862ZM46.7056 24.6012V43.4028H43.5819V27.8284L38.6129 43.4028H34.9319L29.8379 27.8626V43.4028H26.7143V24.6012H31.7602L36.7916 40.0047L41.6837 24.6012H46.7056ZM50.1127 24.6012H63.9144V27.4818H53.2892V32.3103H62.3093V35.1957H53.2892V40.5223H64.1547V43.4028H50.1127V24.6012ZM66.3172 24.6012H72.7711C78.1533 24.5622 81.8536 28.0481 81.8152 33.9996C81.8681 39.951 78.2158 43.4418 72.848 43.4028H66.3172V24.6012ZM72.526 40.5223C74.4771 40.5223 75.9716 39.995 77.0433 38.9355C78.1149 37.8761 78.6579 36.2308 78.6579 33.9898C78.6579 31.7488 78.1149 30.084 77.0433 29.0587C75.9716 28.0335 74.4771 27.472 72.526 27.472H69.5081V40.5223H72.526ZM84.2661 24.6012H87.4618V43.4028H84.2853L84.2661 24.6012ZM102.013 38.7988H93.7955L92.0511 43.4028H88.7497L96.0782 24.6012H99.9227L107.131 43.4028H103.801L102.013 38.7988ZM100.917 35.9134L97.8995 27.97L94.8912 35.9134H100.917ZM41.9432 48.9344V67.7408H37.7191L29.886 53.1868V67.7408H26.7143V48.9344H30.9432L38.7811 63.4688V48.9344H41.9432ZM45.3552 48.9344H59.1376V51.8198H48.5365V56.6337H57.5566V59.5142H48.5365V64.8505H59.4019V67.7262H45.3552V48.9344ZM66.6632 51.8198H60.1708V48.9344H76.332V51.8198H69.8253V67.7408H66.6632V51.8198ZM100.836 48.9344L96.2945 67.7408H92.128L88.9371 53.1575L85.6981 67.7408H81.5317L77.0144 48.9344H80.2918L83.723 64.2646L87.0004 48.9344H90.9795L94.2281 64.2793L97.5439 48.9344H100.836ZM110.048 48.6756C115.2 48.6073 118.967 52.4105 118.914 58.3376C118.967 64.2646 115.2 68.0679 110.048 67.9996C104.887 68.0679 101.105 64.2646 101.172 58.3376C101.105 52.4105 104.887 48.6073 110.048 48.6756ZM110.178 65.1288C113.542 65.1288 115.752 62.5607 115.752 58.3376C115.752 54.1144 113.547 51.5464 110.178 51.5464H109.918C106.554 51.5464 104.344 54.1144 104.344 58.3376C104.344 62.5607 106.55 65.1288 109.918 65.1288H110.178ZM121.303 48.9344H129.616C132.841 48.8953 135.383 51.1509 135.345 54.051C135.345 56.4237 134.22 58.1032 132.25 58.7965C134.259 58.7965 135.085 59.6509 135.085 61.4476V67.7408H131.913V62.258C131.913 60.8422 131.539 60.4467 130.145 60.4467H124.465V67.7408H121.288L121.303 48.9344ZM128.843 57.6101C130.972 57.6101 132.183 56.453 132.183 54.6173C132.183 52.7816 131.02 51.8247 128.843 51.8247H124.465V57.6101H128.843ZM144.23 59.0748L141.467 62.0042V67.7506H138.295V48.9344H141.467V57.7224L149.858 48.9344H153.861L146.513 56.6874L154 67.7408H150.064L144.23 59.0748ZM3.1813 17.522L6.84797 11.0774H0V7.98693H6.84797L3.1813 1.54236L5.86282 -0.000432726L9.52949 6.44414L13.1913 -0.000432726L15.8104 1.54236L12.1485 7.98693H18.9965V11.0774H12.1485L15.8104 17.522L13.1337 19.0648L9.46702 12.6202L5.80516 19.0648L3.1813 17.522Z" fill="white" fill-opacity="0.8"/>
</g>
<defs>
<clipPath id="clip0_1_106">
<rect width="154" height="68" fill="white"/>
</clipPath>
</defs>
</svg>
